<svg xmlns="http://www.w3.org/2000/svg" version="1.1" xmlns:xlink="http://www.w3.org/1999/xlink" xmlns:svgjs="http://svgjs.com/svgjs" width="1920" height="1080" preserveAspectRatio="none" viewBox="0 0 1920 1080"><g mask="url(&quot;#SvgjsMask1933&quot;)" fill="none"><rect width="1920" height="1080" x="0" y="0" fill="url(#SvgjsLinearGradient1934)"></rect><g transform="translate(0, 0)" stroke-linecap="round" stroke="url(#SvgjsLinearGradient1935)"><path d="M340 434.92 L340 645.08" stroke-width="15"></path><path d="M360 383.19 L360 696.81" stroke-width="15"></path><path d="M380 270.23 L380 809.77" stroke-width="15"></path><path d="M400 427.57 L400 652.42" stroke-width="15"></path><path d="M420 389.17 L420 690.83" stroke-width="15"></path><path d="M440 469 L440 611" stroke-width="15"></path><path d="M460 261.53 L460 818.47" stroke-width="15"></path><path d="M480 211.33 L480 868.67" stroke-width="15"></path><path d="M500 215.8 L500 864.2" stroke-width="15"></path><path d="M520 222.44 L520 857.56" stroke-width="15"></path><path d="M540 486 L540 594" stroke-width="15"></path><path d="M560 433.28 L560 646.72" stroke-width="15"></path><path d="M580 497.78 L580 582.22" stroke-width="15"></path><path d="M600 197.95 L600 882.05" stroke-width="15"></path><path d="M620 450.54 L620 629.46" stroke-width="15"></path><path d="M640 371.99 L640 708.01" stroke-width="15"></path><path d="M660 348.88 L660 731.12" stroke-width="15"></path><path d="M680 207.58 L680 872.42" stroke-width="15"></path><path d="M700 211.38 L700 868.63" stroke-width="15"></path><path d="M720 411.85 L720 668.15" stroke-width="15"></path><path d="M740 347.88 L740 732.12" stroke-width="15"></path><path d="M760 375.94 L760 704.06" stroke-width="15"></path><path d="M780 235.65 L780 844.35" stroke-width="15"></path><path d="M800 222.76 L800 857.24" stroke-width="15"></path><path d="M820 265.27 L820 814.73" stroke-width="15"></path><path d="M840 253.41 L840 826.59" stroke-width="15"></path><path d="M860 463.93 L860 616.07" stroke-width="15"></path><path d="M880 429.82 L880 650.17" stroke-width="15"></path><path d="M900 465.42 L900 614.59" stroke-width="15"></path><path d="M920 414.8 L920 665.2" stroke-width="15"></path><path d="M940 326.72 L940 753.28" stroke-width="15"></path><path d="M960 263.6 L960 816.4" stroke-width="15"></path><path d="M980 366.63 L980 713.37" stroke-width="15"></path><path d="M1000 226.09 L1000 853.91" stroke-width="15"></path><path d="M1020 357.94 L1020 722.06" stroke-width="15"></path><path d="M1040 231.05 L1040 848.95" stroke-width="15"></path><path d="M1060 235.75 L1060 844.25" stroke-width="15"></path><path d="M1080 378.56 L1080 701.43" stroke-width="15"></path><path d="M1100 371.27 L1100 708.73" stroke-width="15"></path><path d="M1120 241.45 L1120 838.55" stroke-width="15"></path><path d="M1140 195.61 L1140 884.39" stroke-width="15"></path><path d="M1160 495.12 L1160 584.88" stroke-width="15"></path><path d="M1180 407.16 L1180 672.84" stroke-width="15"></path><path d="M1200 200.73 L1200 879.27" stroke-width="15"></path><path d="M1220 260.92 L1220 819.08" stroke-width="15"></path><path d="M1240 211.3 L1240 868.7" stroke-width="15"></path><path d="M1260 355.1 L1260 724.9" stroke-width="15"></path><path d="M1280 346.22 L1280 733.78" stroke-width="15"></path><path d="M1300 275.42 L1300 804.59" stroke-width="15"></path><path d="M1320 319.94 L1320 760.06" stroke-width="15"></path><path d="M1340 444.95 L1340 635.04" stroke-width="15"></path><path d="M1360 469.42 L1360 610.58" stroke-width="15"></path><path d="M1380 265.06 L1380 814.94" stroke-width="15"></path><path d="M1400 363.69 L1400 716.31" stroke-width="15"></path><path d="M1420 421.49 L1420 658.51" stroke-width="15"></path><path d="M1440 428.97 L1440 651.03" stroke-width="15"></path><path d="M1460 324.24 L1460 755.76" stroke-width="15"></path><path d="M1480 402.37 L1480 677.63" stroke-width="15"></path><path d="M1500 225.88 L1500 854.13" stroke-width="15"></path><path d="M1520 457 L1520 623" stroke-width="15"></path><path d="M1540 381.5 L1540 698.5" stroke-width="15"></path><path d="M1560 300.38 L1560 779.62" stroke-width="15"></path><path d="M1580 285.29 L1580 794.71" stroke-width="15"></path></g></g><defs><mask id="SvgjsMask1933"><rect width="1920" height="1080" fill="#ffffff"></rect></mask><linearGradient x1="10.94%" y1="-19.44%" x2="89.06%" y2="119.44%" gradientUnits="userSpaceOnUse" id="SvgjsLinearGradient1934"><stop stop-color="rgba(50, 51, 55, 1)" offset="0"></stop><stop stop-color="rgba(27, 52, 84, 1)" offset="1"></stop></linearGradient><linearGradient x1="326.4" y1="540" x2="1593.6" y2="540" gradientUnits="userSpaceOnUse" id="SvgjsLinearGradient1935"><stop stop-color="rgba(25, 181, 207, 1)" offset="0"></stop><stop stop-color="rgba(204, 47, 136, 1)" offset="1"></stop></linearGradient></defs></svg>