<svg xmlns="http://www.w3.org/2000/svg" version="1.1" xmlns:xlink="http://www.w3.org/1999/xlink" xmlns:svgjs="http://svgjs.com/svgjs" width="1920" height="1080" preserveAspectRatio="none" viewBox="0 0 1920 1080"><g mask="url(&quot;#SvgjsMask1057&quot;)" fill="none"><rect width="1920" height="1080" x="0" y="0" fill="url(#SvgjsLinearGradient1058)"></rect><g transform="translate(0, 0)" stroke-linecap="round" stroke="url(#SvgjsLinearGradient1059)"><path d="M340 475.24 L340 604.76" stroke-width="15"></path><path d="M360 432.88 L360 647.12" stroke-width="15"></path><path d="M380 277.84 L380 802.16" stroke-width="15"></path><path d="M400 471.81 L400 608.18" stroke-width="15"></path><path d="M420 438.77 L420 641.23" stroke-width="15"></path><path d="M440 269.48 L440 810.52" stroke-width="15"></path><path d="M460 334.19 L460 745.81" stroke-width="15"></path><path d="M480 441.23 L480 638.77" stroke-width="15"></path><path d="M500 262.22 L500 817.78" stroke-width="15"></path><path d="M520 239.49 L520 840.51" stroke-width="15"></path><path d="M540 403.47 L540 676.53" stroke-width="15"></path><path d="M560 443.51 L560 636.49" stroke-width="15"></path><path d="M580 339.11 L580 740.89" stroke-width="15"></path><path d="M600 281.29 L600 798.71" stroke-width="15"></path><path d="M620 407.46 L620 672.54" stroke-width="15"></path><path d="M640 361.65 L640 718.35" stroke-width="15"></path><path d="M660 281.13 L660 798.87" stroke-width="15"></path><path d="M680 234.89 L680 845.11" stroke-width="15"></path><path d="M700 273.7 L700 806.3" stroke-width="15"></path><path d="M720 395.1 L720 684.9" stroke-width="15"></path><path d="M740 326.16 L740 753.84" stroke-width="15"></path><path d="M760 358.02 L760 721.98" stroke-width="15"></path><path d="M780 320.69 L780 759.31" stroke-width="15"></path><path d="M800 402.48 L800 677.52" stroke-width="15"></path><path d="M820 304.72 L820 775.28" stroke-width="15"></path><path d="M840 415.49 L840 664.51" stroke-width="15"></path><path d="M860 362.67 L860 717.33" stroke-width="15"></path><path d="M880 221.03 L880 858.97" stroke-width="15"></path><path d="M900 440.63 L900 639.37" stroke-width="15"></path><path d="M920 435.02 L920 644.98" stroke-width="15"></path><path d="M940 271.07 L940 808.93" stroke-width="15"></path><path d="M960 300.15 L960 779.85" stroke-width="15"></path><path d="M980 441.18 L980 638.82" stroke-width="15"></path><path d="M1000 280.04 L1000 799.96" stroke-width="15"></path><path d="M1020 409.43 L1020 670.57" stroke-width="15"></path><path d="M1040 198.13 L1040 881.87" stroke-width="15"></path><path d="M1060 381.23 L1060 698.77" stroke-width="15"></path><path d="M1080 328.7 L1080 751.3" stroke-width="15"></path><path d="M1100 311.51 L1100 768.49" stroke-width="15"></path><path d="M1120 290.32 L1120 789.67" stroke-width="15"></path><path d="M1140 303.05 L1140 776.95" stroke-width="15"></path><path d="M1160 484.06 L1160 595.93" stroke-width="15"></path><path d="M1180 484.19 L1180 595.82" stroke-width="15"></path><path d="M1200 274.91 L1200 805.09" stroke-width="15"></path><path d="M1220 346.78 L1220 733.22" stroke-width="15"></path><path d="M1240 466.45 L1240 613.55" stroke-width="15"></path><path d="M1260 232.38 L1260 847.62" stroke-width="15"></path><path d="M1280 410.4 L1280 669.6" stroke-width="15"></path><path d="M1300 297.62 L1300 782.38" stroke-width="15"></path><path d="M1320 267.46 L1320 812.54" stroke-width="15"></path><path d="M1340 485.97 L1340 594.03" stroke-width="15"></path><path d="M1360 501.62 L1360 578.38" stroke-width="15"></path><path d="M1380 263.25 L1380 816.75" stroke-width="15"></path><path d="M1400 287.33 L1400 792.67" stroke-width="15"></path><path d="M1420 485.63 L1420 594.37" stroke-width="15"></path><path d="M1440 247.43 L1440 832.57" stroke-width="15"></path><path d="M1460 361.06 L1460 718.93" stroke-width="15"></path><path d="M1480 338.48 L1480 741.52" stroke-width="15"></path><path d="M1500 434.73 L1500 645.27" stroke-width="15"></path><path d="M1520 298.69 L1520 781.31" stroke-width="15"></path><path d="M1540 446.74 L1540 633.26" stroke-width="15"></path><path d="M1560 377.53 L1560 702.47" stroke-width="15"></path><path d="M1580 306.13 L1580 773.88" stroke-width="15"></path></g></g><defs><mask id="SvgjsMask1057"><rect width="1920" height="1080" fill="#ffffff"></rect></mask><linearGradient x1="10.94%" y1="-19.44%" x2="89.06%" y2="119.44%" gradientUnits="userSpaceOnUse" id="SvgjsLinearGradient1058"><stop stop-color="rgba(50, 51, 55, 1)" offset="0"></stop><stop stop-color="rgba(27, 52, 84, 1)" offset="1"></stop></linearGradient><linearGradient x1="326.4" y1="540" x2="1593.6" y2="540" gradientUnits="userSpaceOnUse" id="SvgjsLinearGradient1059"><stop stop-color="rgba(231, 241, 240, 1)" offset="0"></stop><stop stop-color="rgba(56, 99, 116, 1)" offset="1"></stop></linearGradient></defs></svg>